<svg width="343" height="59" viewBox="0 0 343 59" fill="none" xmlns="http://www.w3.org/2000/svg">
<rect width="343" height="58" transform="translate(0 0.358154)" fill="#7548F2"/>
<path d="M76.152 40.3582V18.54H80.1044V27.7765H90.2145V18.54H94.1776V40.3582H90.2145V31.0897H80.1044V40.3582H76.152ZM106.044 40.6778C104.446 40.6778 103.061 40.3262 101.889 39.6231C100.717 38.9199 99.8077 37.9363 99.1614 36.6721C98.5222 35.4079 98.2026 33.9306 98.2026 32.2403C98.2026 30.5499 98.5222 29.0691 99.1614 27.7978C99.8077 26.5265 100.717 25.5393 101.889 24.8361C103.061 24.133 104.446 23.7814 106.044 23.7814C107.642 23.7814 109.026 24.133 110.198 24.8361C111.37 25.5393 112.276 26.5265 112.915 27.7978C113.561 29.0691 113.884 30.5499 113.884 32.2403C113.884 33.9306 113.561 35.4079 112.915 36.6721C112.276 37.9363 111.37 38.9199 110.198 39.6231C109.026 40.3262 107.642 40.6778 106.044 40.6778ZM106.065 37.5883C106.931 37.5883 107.656 37.3503 108.238 36.8745C108.821 36.3915 109.254 35.7452 109.538 34.9356C109.829 34.1259 109.975 33.2239 109.975 32.2296C109.975 31.2282 109.829 30.3226 109.538 29.513C109.254 28.6962 108.821 28.0464 108.238 27.5634C107.656 27.0805 106.931 26.839 106.065 26.839C105.177 26.839 104.438 27.0805 103.849 27.5634C103.267 28.0464 102.83 28.6962 102.539 29.513C102.254 30.3226 102.112 31.2282 102.112 32.2296C102.112 33.2239 102.254 34.1259 102.539 34.9356C102.83 35.7452 103.267 36.3915 103.849 36.8745C104.438 37.3503 105.177 37.5883 106.065 37.5883ZM120.666 40.3582L116.043 23.9945H119.974L122.85 35.5002H122.999L125.94 23.9945H129.828L132.768 35.4363H132.928L135.762 23.9945L139.704 23.9945L135.069 40.3582H131.053L127.985 29.2999H127.761L124.693 40.3582H120.666ZM151.038 40.3582V23.9945H154.894V40.3582H151.038ZM152.977 21.6721C152.366 21.6721 151.84 21.4697 151.4 21.0648C150.96 20.6529 150.739 20.1593 150.739 19.584C150.739 19.0016 150.96 18.508 151.4 18.1032C151.84 17.6912 152.366 17.4853 152.977 17.4853C153.595 17.4853 154.12 17.6912 154.553 18.1032C154.994 18.508 155.214 19.0016 155.214 19.584C155.214 20.1593 154.994 20.6529 154.553 21.0648C154.12 21.4697 153.595 21.6721 152.977 21.6721ZM167.631 23.9945V26.9775H158.224V23.9945H167.631ZM160.547 20.0741H164.403V35.4363C164.403 35.9547 164.481 36.3525 164.638 36.6295C164.801 36.8993 165.014 37.084 165.277 37.1834C165.54 37.2829 165.831 37.3326 166.15 37.3326C166.392 37.3326 166.612 37.3148 166.811 37.2793C167.017 37.2438 167.173 37.2118 167.28 37.1834L167.93 40.1984C167.724 40.2694 167.429 40.3475 167.045 40.4327C166.669 40.518 166.207 40.5677 165.66 40.5819C164.694 40.6103 163.824 40.4647 163.05 40.1451C162.276 39.8184 161.662 39.3141 161.207 38.6323C160.76 37.9505 160.54 37.0982 160.547 36.0755V20.0741ZM182.875 40.3582L178.251 23.9945H182.183L185.059 35.5002H185.208L188.149 23.9945H192.037L194.977 35.4363H195.137L197.971 23.9945H201.913L197.278 40.3582H193.262L190.194 29.2999H189.97L186.902 40.3582H182.875ZM211.874 40.6778C210.276 40.6778 208.891 40.3262 207.72 39.6231C206.548 38.9199 205.639 37.9363 204.992 36.6721C204.353 35.4079 204.033 33.9306 204.033 32.2403C204.033 30.5499 204.353 29.0691 204.992 27.7978C205.639 26.5265 206.548 25.5393 207.72 24.8361C208.891 24.133 210.276 23.7814 211.874 23.7814C213.472 23.7814 214.857 24.133 216.029 24.8361C217.201 25.5393 218.107 26.5265 218.746 27.7978C219.392 29.0691 219.715 30.5499 219.715 32.2403C219.715 33.9306 219.392 35.4079 218.746 36.6721C218.107 37.9363 217.201 38.9199 216.029 39.6231C214.857 40.3262 213.472 40.6778 211.874 40.6778ZM211.896 37.5883C212.762 37.5883 213.487 37.3503 214.069 36.8745C214.651 36.3915 215.085 35.7452 215.369 34.9356C215.66 34.1259 215.806 33.2239 215.806 32.2296C215.806 31.2282 215.66 30.3226 215.369 29.513C215.085 28.6962 214.651 28.0464 214.069 27.5634C213.487 27.0805 212.762 26.839 211.896 26.839C211.008 26.839 210.269 27.0805 209.68 27.5634C209.097 28.0464 208.661 28.6962 208.369 29.513C208.085 30.3226 207.943 31.2282 207.943 32.2296C207.943 33.2239 208.085 34.1259 208.369 34.9356C208.661 35.7452 209.097 36.3915 209.68 36.8745C210.269 37.3503 211.008 37.5883 211.896 37.5883ZM223.589 40.3582V23.9945H227.328V26.7218H227.498C227.797 25.7772 228.308 25.0492 229.032 24.5378C229.764 24.0194 230.599 23.7601 231.536 23.7601C231.749 23.7601 231.987 23.7708 232.25 23.7921C232.52 23.8063 232.743 23.8312 232.921 23.8667V27.4143C232.758 27.3574 232.498 27.3077 232.143 27.2651C231.795 27.2154 231.458 27.1905 231.131 27.1905C230.428 27.1905 229.796 27.3432 229.235 27.6486C228.681 27.9469 228.244 28.3624 227.924 28.8951C227.605 29.4278 227.445 30.0421 227.445 30.7381V40.3582H223.589ZM239.599 35.2232L239.588 30.5677H240.206L246.087 23.9945H250.593L243.359 32.0485H242.56L239.599 35.2232ZM236.083 40.3582V18.54H239.94V40.3582H236.083ZM246.353 40.3582L241.026 32.9114L243.626 30.1948L250.966 40.3582H246.353ZM266.696 28.3198L263.181 28.7033C263.081 28.3482 262.907 28.0144 262.659 27.7019C262.417 27.3894 262.091 27.1373 261.679 26.9455C261.267 26.7538 260.762 26.6579 260.166 26.6579C259.363 26.6579 258.689 26.8319 258.142 27.1799C257.602 27.5279 257.336 27.9789 257.343 28.5329C257.336 29.0087 257.51 29.3958 257.865 29.6941C258.227 29.9924 258.824 30.2374 259.655 30.4292L262.446 31.0258C263.994 31.3596 265.145 31.8887 265.897 32.6131C266.657 33.3376 267.041 34.2857 267.048 35.4576C267.041 36.4874 266.739 37.3965 266.142 38.1849C265.553 38.9661 264.733 39.5769 263.682 40.0172C262.63 40.4576 261.423 40.6778 260.059 40.6778C258.057 40.6778 256.444 40.2587 255.223 39.4207C254.001 38.5755 253.273 37.4001 253.039 35.8944L256.799 35.5322C256.97 36.2708 257.332 36.8283 257.886 37.2047C258.44 37.5812 259.161 37.7694 260.049 37.7694C260.965 37.7694 261.7 37.5812 262.254 37.2047C262.815 36.8283 263.096 36.3631 263.096 35.8091C263.096 35.3404 262.914 34.9533 262.552 34.6479C262.197 34.3425 261.643 34.1082 260.89 33.9448L258.099 33.3589C256.53 33.0322 255.368 32.4817 254.615 31.7076C253.863 30.9263 253.49 29.9391 253.497 28.7459C253.49 27.7374 253.763 26.8638 254.317 26.1252C254.878 25.3795 255.656 24.8042 256.65 24.3993C257.652 23.9874 258.806 23.7814 260.113 23.7814C262.03 23.7814 263.539 24.1898 264.64 25.0066C265.748 25.8234 266.434 26.9278 266.696 28.3198Z" fill="white"/>
</svg>
