<svg width="112" height="489" viewBox="0 0 112 489" fill="none" xmlns="http://www.w3.org/2000/svg">
<rect y="0.733398" width="112" height="488" fill="#F24739"/>
<path d="M73 397.29H38.0909V390.966H52.8693L52.8693 374.79H38.0909V368.449H73V374.79H58.1705L58.1705 390.966H73V397.29ZM73.5114 349.464C73.5114 352.021 72.9489 354.236 71.8239 356.111C70.6989 357.986 69.125 359.441 67.1023 360.475C65.0795 361.498 62.7159 362.009 60.0114 362.009C57.3068 362.009 54.9375 361.498 52.9034 360.475C50.8693 359.441 49.2898 357.986 48.1648 356.111C47.0398 354.236 46.4773 352.021 46.4773 349.464C46.4773 346.907 47.0398 344.691 48.1648 342.816C49.2898 340.941 50.8693 339.492 52.9034 338.469C54.9375 337.435 57.3068 336.918 60.0114 336.918C62.7159 336.918 65.0795 337.435 67.1023 338.469C69.125 339.492 70.6989 340.941 71.8239 342.816C72.9489 344.691 73.5114 346.907 73.5114 349.464ZM68.5682 349.43C68.5682 348.043 68.1875 346.884 67.4261 345.952C66.6534 345.021 65.6193 344.327 64.3239 343.873C63.0284 343.407 61.5852 343.174 59.9943 343.174C58.392 343.174 56.9432 343.407 55.6477 343.873C54.3409 344.327 53.3011 345.021 52.5284 345.952C51.7557 346.884 51.3693 348.043 51.3693 349.43C51.3693 350.85 51.7557 352.032 52.5284 352.975C53.3011 353.907 54.3409 354.606 55.6477 355.072C56.9432 355.526 58.392 355.754 59.9943 355.754C61.5852 355.754 63.0284 355.526 64.3239 355.072C65.6193 354.606 66.6534 353.907 67.4261 352.975C68.1875 352.032 68.5682 350.85 68.5682 349.43ZM73 326.068L46.8182 333.465V327.176L65.2273 322.573V322.335L46.8182 317.63V311.409L65.125 306.704V306.448L46.8182 301.914V295.607L73 303.022V309.448L55.3068 314.357V314.715L73 319.624V326.068ZM73 277.473H46.8182V271.302H73V277.473ZM43.1023 274.371C43.1023 275.348 42.7784 276.189 42.1307 276.893C41.4716 277.598 40.6818 277.95 39.7614 277.95C38.8295 277.95 38.0398 277.598 37.392 276.893C36.733 276.189 36.4034 275.348 36.4034 274.371C36.4034 273.382 36.733 272.541 37.392 271.848C38.0398 271.143 38.8295 270.791 39.7614 270.791C40.6818 270.791 41.4716 271.143 42.1307 271.848C42.7784 272.541 43.1023 273.382 43.1023 274.371ZM46.8182 250.923H51.5909V265.975H46.8182V250.923ZM40.5455 262.259V256.088H65.125C65.9545 256.088 66.5909 255.963 67.0341 255.713C67.4659 255.452 67.7614 255.111 67.9205 254.69C68.0795 254.27 68.1591 253.804 68.1591 253.293C68.1591 252.906 68.1307 252.554 68.0739 252.236C68.017 251.906 67.9659 251.656 67.9205 251.486L72.7443 250.446C72.858 250.776 72.983 251.247 73.1193 251.861C73.2557 252.463 73.3352 253.202 73.358 254.077C73.4034 255.622 73.1705 257.014 72.6591 258.253C72.1364 259.492 71.3295 260.475 70.2386 261.202C69.1477 261.918 67.7841 262.27 66.1477 262.259H40.5455ZM73 226.533L46.8182 233.931V227.641L65.2273 223.039V222.8L46.8182 218.096V211.874L65.125 207.17V206.914L46.8182 202.38V196.073L73 203.488V209.914L55.3068 214.823V215.181L73 220.09V226.533ZM73.5114 180.134C73.5114 182.691 72.9489 184.907 71.8239 186.782C70.6989 188.657 69.125 190.112 67.1023 191.146C65.0795 192.168 62.7159 192.68 60.0114 192.68C57.3068 192.68 54.9375 192.168 52.9034 191.146C50.8693 190.112 49.2898 188.657 48.1648 186.782C47.0398 184.907 46.4773 182.691 46.4773 180.134C46.4773 177.578 47.0398 175.362 48.1648 173.487C49.2898 171.612 50.8693 170.163 52.9034 169.14C54.9375 168.106 57.3068 167.589 60.0114 167.589C62.7159 167.589 65.0795 168.106 67.1023 169.14C69.125 170.163 70.6989 171.612 71.8239 173.487C72.9489 175.362 73.5114 177.578 73.5114 180.134ZM68.5682 180.1C68.5682 178.714 68.1875 177.555 67.4261 176.623C66.6534 175.691 65.6193 174.998 64.3239 174.543C63.0284 174.078 61.5852 173.845 59.9943 173.845C58.392 173.845 56.9432 174.078 55.6477 174.543C54.3409 174.998 53.3011 175.691 52.5284 176.623C51.7557 177.555 51.3693 178.714 51.3693 180.1C51.3693 181.521 51.7557 182.703 52.5284 183.646C53.3011 184.578 54.3409 185.276 55.6477 185.742C56.9432 186.197 58.392 186.424 59.9943 186.424C61.5852 186.424 63.0284 186.197 64.3239 185.742C65.6193 185.276 66.6534 184.578 67.4261 183.646C68.1875 182.703 68.5682 181.521 68.5682 180.1ZM73 161.392H46.8182L46.8182 155.409H51.1818V155.136C49.6705 154.659 48.5057 153.841 47.6875 152.681C46.858 151.511 46.4432 150.176 46.4432 148.676C46.4432 148.335 46.4602 147.954 46.4943 147.534C46.517 147.102 46.5568 146.744 46.6136 146.46H52.2898C52.1989 146.721 52.1193 147.136 52.0511 147.704C51.9716 148.261 51.9318 148.801 51.9318 149.324C51.9318 150.449 52.1761 151.46 52.6648 152.358C53.142 153.244 53.8068 153.943 54.6591 154.454C55.5114 154.966 56.4943 155.221 57.608 155.221H73V161.392ZM64.7841 135.775L57.3352 135.792V134.804L46.8182 125.395V118.185L59.7045 129.758V131.037L64.7841 135.775ZM73 141.4H38.0909V135.23H73V141.4ZM73 124.969L61.0852 133.491L56.7386 129.332L73 117.588V124.969ZM53.7386 92.4191L54.3523 98.0441C53.7841 98.2032 53.25 98.4816 52.75 98.8794C52.25 99.2657 51.8466 99.7885 51.5398 100.448C51.233 101.107 51.0795 101.913 51.0795 102.868C51.0795 104.152 51.358 105.232 51.9148 106.107C52.4716 106.97 53.1932 107.396 54.0795 107.385C54.8409 107.396 55.4602 107.118 55.9375 106.55C56.4148 105.97 56.8068 105.016 57.1136 103.686L58.0682 99.2203C58.6023 96.743 59.4489 94.9021 60.608 93.6975C61.767 92.4816 63.2841 91.868 65.1591 91.8566C66.8068 91.868 68.2614 92.351 69.5227 93.3055C70.7727 94.2487 71.75 95.5612 72.4545 97.243C73.1591 98.9248 73.5114 100.857 73.5114 103.038C73.5114 106.243 72.8409 108.823 71.5 110.777C70.1477 112.732 68.267 113.896 65.858 114.271L65.2784 108.254C66.4602 107.982 67.3523 107.402 67.9545 106.516C68.5568 105.629 68.858 104.476 68.858 103.056C68.858 101.59 68.5568 100.413 67.9545 99.5271C67.3523 98.6294 66.608 98.1805 65.7216 98.1805C64.9716 98.1805 64.3523 98.4703 63.8636 99.0498C63.375 99.618 63 100.504 62.7386 101.709L61.8011 106.175C61.2784 108.686 60.3977 110.544 59.1591 111.749C57.9091 112.953 56.3295 113.55 54.4205 113.538C52.8068 113.55 51.4091 113.112 50.2273 112.226C49.0341 111.328 48.1136 110.084 47.4659 108.493C46.8068 106.891 46.4773 105.044 46.4773 102.953C46.4773 99.885 47.1307 97.4703 48.4375 95.7089C49.7443 93.9362 51.5114 92.8396 53.7386 92.4191Z" fill="white"/>
</svg>
