<svg width="112" height="473" viewBox="0 0 112 473" fill="none" xmlns="http://www.w3.org/2000/svg">
<rect y="0.733398" width="112" height="472" fill="#7548F2"/>
<path d="M73 389.29H38.0909V382.966H52.8693L52.8693 366.79H38.0909V360.449H73V366.79H58.1705L58.1705 382.966H73V389.29ZM73.5114 341.464C73.5114 344.021 72.9489 346.236 71.8239 348.111C70.6989 349.986 69.125 351.441 67.1023 352.475C65.0795 353.498 62.7159 354.009 60.0114 354.009C57.3068 354.009 54.9375 353.498 52.9034 352.475C50.8693 351.441 49.2898 349.986 48.1648 348.111C47.0398 346.236 46.4773 344.021 46.4773 341.464C46.4773 338.907 47.0398 336.691 48.1648 334.816C49.2898 332.941 50.8693 331.492 52.9034 330.469C54.9375 329.435 57.3068 328.918 60.0114 328.918C62.7159 328.918 65.0795 329.435 67.1023 330.469C69.125 331.492 70.6989 332.941 71.8239 334.816C72.9489 336.691 73.5114 338.907 73.5114 341.464ZM68.5682 341.43C68.5682 340.043 68.1875 338.884 67.4261 337.952C66.6534 337.021 65.6193 336.327 64.3239 335.873C63.0284 335.407 61.5852 335.174 59.9943 335.174C58.392 335.174 56.9432 335.407 55.6477 335.873C54.3409 336.327 53.3011 337.021 52.5284 337.952C51.7557 338.884 51.3693 340.043 51.3693 341.43C51.3693 342.85 51.7557 344.032 52.5284 344.975C53.3011 345.907 54.3409 346.606 55.6477 347.072C56.9432 347.526 58.392 347.754 59.9943 347.754C61.5852 347.754 63.0284 347.526 64.3239 347.072C65.6193 346.606 66.6534 345.907 67.4261 344.975C68.1875 344.032 68.5682 342.85 68.5682 341.43ZM73 318.068L46.8182 325.465V319.176L65.2273 314.573V314.335L46.8182 309.63V303.409L65.125 298.704V298.448L46.8182 293.914V287.607L73 295.022V301.448L55.3068 306.357V306.715L73 311.624V318.068ZM73 269.473H46.8182V263.302H73V269.473ZM43.1023 266.371C43.1023 267.348 42.7784 268.189 42.1307 268.893C41.4716 269.598 40.6818 269.95 39.7614 269.95C38.8295 269.95 38.0398 269.598 37.392 268.893C36.733 268.189 36.4034 267.348 36.4034 266.371C36.4034 265.382 36.733 264.541 37.392 263.848C38.0398 263.143 38.8295 262.791 39.7614 262.791C40.6818 262.791 41.4716 263.143 42.1307 263.848C42.7784 264.541 43.1023 265.382 43.1023 266.371ZM46.8182 242.923H51.5909V257.975H46.8182V242.923ZM40.5455 254.259V248.088H65.125C65.9545 248.088 66.5909 247.963 67.0341 247.713C67.4659 247.452 67.7614 247.111 67.9205 246.69C68.0795 246.27 68.1591 245.804 68.1591 245.293C68.1591 244.906 68.1307 244.554 68.0739 244.236C68.017 243.906 67.9659 243.656 67.9205 243.486L72.7443 242.446C72.858 242.776 72.983 243.247 73.1193 243.861C73.2557 244.463 73.3352 245.202 73.358 246.077C73.4034 247.622 73.1705 249.014 72.6591 250.253C72.1364 251.492 71.3295 252.475 70.2386 253.202C69.1477 253.918 67.7841 254.27 66.1477 254.259H40.5455ZM73 218.533L46.8182 225.931V219.641L65.2273 215.039V214.8L46.8182 210.096V203.874L65.125 199.17V198.914L46.8182 194.38V188.073L73 195.488V201.914L55.3068 206.823V207.181L73 212.09V218.533ZM73.5114 172.134C73.5114 174.691 72.9489 176.907 71.8239 178.782C70.6989 180.657 69.125 182.112 67.1023 183.146C65.0795 184.168 62.7159 184.68 60.0114 184.68C57.3068 184.68 54.9375 184.168 52.9034 183.146C50.8693 182.112 49.2898 180.657 48.1648 178.782C47.0398 176.907 46.4773 174.691 46.4773 172.134C46.4773 169.578 47.0398 167.362 48.1648 165.487C49.2898 163.612 50.8693 162.163 52.9034 161.14C54.9375 160.106 57.3068 159.589 60.0114 159.589C62.7159 159.589 65.0795 160.106 67.1023 161.14C69.125 162.163 70.6989 163.612 71.8239 165.487C72.9489 167.362 73.5114 169.578 73.5114 172.134ZM68.5682 172.1C68.5682 170.714 68.1875 169.555 67.4261 168.623C66.6534 167.691 65.6193 166.998 64.3239 166.543C63.0284 166.078 61.5852 165.845 59.9943 165.845C58.392 165.845 56.9432 166.078 55.6477 166.543C54.3409 166.998 53.3011 167.691 52.5284 168.623C51.7557 169.555 51.3693 170.714 51.3693 172.1C51.3693 173.521 51.7557 174.703 52.5284 175.646C53.3011 176.578 54.3409 177.276 55.6477 177.742C56.9432 178.197 58.392 178.424 59.9943 178.424C61.5852 178.424 63.0284 178.197 64.3239 177.742C65.6193 177.276 66.6534 176.578 67.4261 175.646C68.1875 174.703 68.5682 173.521 68.5682 172.1ZM73 153.392H46.8182L46.8182 147.409H51.1818V147.136C49.6705 146.659 48.5057 145.841 47.6875 144.681C46.858 143.511 46.4432 142.176 46.4432 140.676C46.4432 140.335 46.4602 139.954 46.4943 139.534C46.517 139.102 46.5568 138.744 46.6136 138.46H52.2898C52.1989 138.721 52.1193 139.136 52.0511 139.704C51.9716 140.261 51.9318 140.801 51.9318 141.324C51.9318 142.449 52.1761 143.46 52.6648 144.358C53.142 145.244 53.8068 145.943 54.6591 146.454C55.5114 146.966 56.4943 147.221 57.608 147.221H73V153.392ZM64.7841 127.775L57.3352 127.792V126.804L46.8182 117.395V110.185L59.7045 121.758V123.037L64.7841 127.775ZM73 133.4H38.0909V127.23H73V133.4ZM73 116.969L61.0852 125.491L56.7386 121.332L73 109.588V116.969ZM53.7386 84.4191L54.3523 90.0441C53.7841 90.2032 53.25 90.4816 52.75 90.8794C52.25 91.2657 51.8466 91.7885 51.5398 92.4475C51.233 93.1066 51.0795 93.9135 51.0795 94.868C51.0795 96.1521 51.358 97.2316 51.9148 98.1066C52.4716 98.9703 53.1932 99.3964 54.0795 99.385C54.8409 99.3964 55.4602 99.118 55.9375 98.5498C56.4148 97.9703 56.8068 97.0157 57.1136 95.6862L58.0682 91.2203C58.6023 88.743 59.4489 86.9021 60.608 85.6975C61.767 84.4816 63.2841 83.868 65.1591 83.8566C66.8068 83.868 68.2614 84.351 69.5227 85.3055C70.7727 86.2487 71.75 87.5612 72.4545 89.243C73.1591 90.9248 73.5114 92.8566 73.5114 95.0385C73.5114 98.243 72.8409 100.823 71.5 102.777C70.1477 104.732 68.267 105.896 65.858 106.271L65.2784 100.254C66.4602 99.9816 67.3523 99.4021 67.9545 98.5157C68.5568 97.6294 68.858 96.476 68.858 95.0555C68.858 93.5896 68.5568 92.4135 67.9545 91.5271C67.3523 90.6294 66.608 90.1805 65.7216 90.1805C64.9716 90.1805 64.3523 90.4703 63.8636 91.0498C63.375 91.618 63 92.5044 62.7386 93.7089L61.8011 98.1748C61.2784 100.686 60.3977 102.544 59.1591 103.749C57.9091 104.953 56.3295 105.55 54.4205 105.538C52.8068 105.55 51.4091 105.112 50.2273 104.226C49.0341 103.328 48.1136 102.084 47.4659 100.493C46.8068 98.8907 46.4773 97.0441 46.4773 94.9532C46.4773 91.885 47.1307 89.4703 48.4375 87.7089C49.7443 85.9362 51.5114 84.8396 53.7386 84.4191Z" fill="white"/>
</svg>
