<svg width="343" height="81" viewBox="0 0 343 81" fill="none" xmlns="http://www.w3.org/2000/svg">
<rect width="343" height="80" transform="translate(0 0.753418)" fill="#F24739"/>
<path d="M19.4432 57.7534L19.4432 22.8443H25.767V37.6227H41.9432V22.8443H48.2841V57.7534H41.9432V42.9239H25.767L25.767 57.7534H19.4432ZM67.2697 58.2648C64.7128 58.2648 62.4969 57.7023 60.6219 56.5773C58.7469 55.4523 57.2924 53.8784 56.2583 51.8557C55.2356 49.833 54.7242 47.4693 54.7242 44.7648C54.7242 42.0602 55.2356 39.6909 56.2583 37.6568C57.2924 35.6227 58.7469 34.0432 60.6219 32.9182C62.4969 31.7932 64.7128 31.2307 67.2697 31.2307C69.8265 31.2307 72.0424 31.7932 73.9174 32.9182C75.7924 34.0432 77.2413 35.6227 78.264 37.6568C79.2981 39.6909 79.8151 42.0602 79.8151 44.7648C79.8151 47.4693 79.2981 49.833 78.264 51.8557C77.2413 53.8784 75.7924 55.4523 73.9174 56.5773C72.0424 57.7023 69.8265 58.2648 67.2697 58.2648ZM67.3037 53.3216C68.6901 53.3216 69.8492 52.9409 70.781 52.1796C71.7128 51.4068 72.406 50.3727 72.8606 49.0773C73.3265 47.7818 73.5594 46.3386 73.5594 44.7477C73.5594 43.1455 73.3265 41.6966 72.8606 40.4011C72.406 39.0943 71.7128 38.0546 70.781 37.2818C69.8492 36.5091 68.6901 36.1227 67.3037 36.1227C65.8833 36.1227 64.7015 36.5091 63.7583 37.2818C62.8265 38.0546 62.1276 39.0943 61.6617 40.4011C61.2072 41.6966 60.9799 43.1455 60.9799 44.7477C60.9799 46.3386 61.2072 47.7818 61.6617 49.0773C62.1276 50.3727 62.8265 51.4068 63.7583 52.1796C64.7015 52.9409 65.8833 53.3216 67.3037 53.3216ZM90.6657 57.7534L83.268 31.5716H89.5578L94.1601 49.9807H94.3987L99.1032 31.5716H105.325L110.029 49.8784H110.285L114.819 31.5716H121.126L113.711 57.7534H107.285L102.376 40.0602H102.018L97.1089 57.7534H90.6657ZM139.26 57.7534V31.5716L145.431 31.5716V57.7534H139.26ZM142.363 27.8557C141.385 27.8557 140.545 27.5318 139.84 26.8841C139.135 26.225 138.783 25.4352 138.783 24.5148C138.783 23.583 139.135 22.7932 139.84 22.1455C140.545 21.4864 141.385 21.1568 142.363 21.1568C143.351 21.1568 144.192 21.4864 144.885 22.1455C145.59 22.7932 145.942 23.583 145.942 24.5148C145.942 25.4352 145.59 26.225 144.885 26.8841C144.192 27.5318 143.351 27.8557 142.363 27.8557ZM165.81 31.5716V36.3443H150.759V31.5716H165.81ZM154.475 25.2989H160.645V49.8784C160.645 50.708 160.77 51.3443 161.02 51.7875C161.282 52.2193 161.622 52.5148 162.043 52.6739C162.463 52.833 162.929 52.9125 163.441 52.9125C163.827 52.9125 164.179 52.8841 164.497 52.8273C164.827 52.7705 165.077 52.7193 165.247 52.6739L166.287 57.4977C165.958 57.6114 165.486 57.7364 164.872 57.8727C164.27 58.0091 163.532 58.0886 162.657 58.1114C161.111 58.1568 159.719 57.9239 158.48 57.4125C157.242 56.8898 156.259 56.083 155.532 54.9921C154.816 53.9011 154.463 52.5375 154.475 50.9011V25.2989ZM190.2 57.7534L182.802 31.5716H189.092L193.694 49.9807H193.933L198.638 31.5716H204.859L209.564 49.8784H209.819L214.354 31.5716H220.66L213.246 57.7534H206.819L201.91 40.0602H201.552L196.643 57.7534H190.2ZM236.599 58.2648C234.042 58.2648 231.826 57.7023 229.951 56.5773C228.076 55.4523 226.622 53.8784 225.588 51.8557C224.565 49.833 224.054 47.4693 224.054 44.7648C224.054 42.0602 224.565 39.6909 225.588 37.6568C226.622 35.6227 228.076 34.0432 229.951 32.9182C231.826 31.7932 234.042 31.2307 236.599 31.2307C239.156 31.2307 241.372 31.7932 243.247 32.9182C245.122 34.0432 246.571 35.6227 247.593 37.6568C248.627 39.6909 249.144 42.0602 249.144 44.7648C249.144 47.4693 248.627 49.833 247.593 51.8557C246.571 53.8784 245.122 55.4523 243.247 56.5773C241.372 57.7023 239.156 58.2648 236.599 58.2648ZM236.633 53.3216C238.019 53.3216 239.179 52.9409 240.11 52.1796C241.042 51.4068 241.735 50.3727 242.19 49.0773C242.656 47.7818 242.889 46.3386 242.889 44.7477C242.889 43.1455 242.656 41.6966 242.19 40.4011C241.735 39.0943 241.042 38.0546 240.11 37.2818C239.179 36.5091 238.019 36.1227 236.633 36.1227C235.213 36.1227 234.031 36.5091 233.088 37.2818C232.156 38.0546 231.457 39.0943 230.991 40.4011C230.537 41.6966 230.309 43.1455 230.309 44.7477C230.309 46.3386 230.537 47.7818 230.991 49.0773C231.457 50.3727 232.156 51.4068 233.088 52.1796C234.031 52.9409 235.213 53.3216 236.633 53.3216ZM255.342 57.7534V31.5716H261.325V35.9352H261.597C262.075 34.4239 262.893 33.2591 264.052 32.4409C265.222 31.6114 266.558 31.1966 268.058 31.1966C268.399 31.1966 268.779 31.2136 269.2 31.2477C269.631 31.2705 269.989 31.3102 270.274 31.3671V37.0432C270.012 36.9523 269.597 36.8727 269.029 36.8046C268.472 36.725 267.933 36.6852 267.41 36.6852C266.285 36.6852 265.274 36.9296 264.376 37.4182C263.489 37.8955 262.791 38.5602 262.279 39.4125C261.768 40.2648 261.512 41.2477 261.512 42.3614V57.7534H255.342ZM280.958 49.5375L280.941 42.0886H281.93L291.339 31.5716H298.549L286.975 44.458H285.697L280.958 49.5375ZM275.333 57.7534V22.8443L281.503 22.8443V57.7534H275.333ZM291.765 57.7534L283.242 45.8386L287.401 41.4921L299.145 57.7534H291.765ZM324.314 38.4921L318.689 39.1057C318.53 38.5375 318.252 38.0034 317.854 37.5034C317.468 37.0034 316.945 36.6 316.286 36.2932C315.627 35.9864 314.82 35.833 313.865 35.833C312.581 35.833 311.502 36.1114 310.627 36.6682C309.763 37.225 309.337 37.9466 309.348 38.833C309.337 39.5943 309.615 40.2136 310.184 40.6909C310.763 41.1682 311.718 41.5602 313.047 41.8671L317.513 42.8216C319.99 43.3557 321.831 44.2023 323.036 45.3614C324.252 46.5205 324.865 48.0375 324.877 49.9125C324.865 51.5602 324.382 53.0148 323.428 54.2761C322.485 55.5261 321.172 56.5034 319.49 57.208C317.809 57.9125 315.877 58.2648 313.695 58.2648C310.49 58.2648 307.911 57.5943 305.956 56.2534C304.002 54.9011 302.837 53.0205 302.462 50.6114L308.479 50.0318C308.752 51.2136 309.331 52.1057 310.218 52.708C311.104 53.3102 312.257 53.6114 313.678 53.6114C315.144 53.6114 316.32 53.3102 317.206 52.708C318.104 52.1057 318.553 51.3614 318.553 50.475C318.553 49.725 318.263 49.1057 317.684 48.6171C317.115 48.1284 316.229 47.7534 315.024 47.4921L310.559 46.5546C308.047 46.0318 306.189 45.1511 304.985 43.9125C303.78 42.6625 303.184 41.083 303.195 39.1739C303.184 37.5602 303.621 36.1625 304.507 34.9807C305.405 33.7875 306.649 32.8671 308.24 32.2193C309.843 31.5602 311.689 31.2307 313.78 31.2307C316.848 31.2307 319.263 31.8841 321.024 33.1909C322.797 34.4977 323.894 36.2648 324.314 38.4921Z" fill="white"/>
</svg>
