<svg width="48" height="49" viewBox="0 0 48 49" fill="none" xmlns="http://www.w3.org/2000/svg">
<circle cx="24" cy="24.3582" r="24" fill="#7548F2" fill-opacity="0.9"/>
<path d="M24.3784 34.2864C22.9057 34.2864 21.5966 34.0341 20.4511 33.5295C19.3125 33.025 18.4125 32.3227 17.7511 31.4227C17.0898 30.5227 16.7386 29.483 16.6977 28.3034H20.5432C20.5773 28.8693 20.7648 29.3636 21.1057 29.7864C21.4466 30.2023 21.9 30.5261 22.4659 30.758C23.0318 30.9898 23.6659 31.1057 24.3682 31.1057C25.1182 31.1057 25.783 30.9761 26.3625 30.717C26.942 30.4511 27.3955 30.083 27.7227 29.6125C28.05 29.142 28.2102 28.6 28.2034 27.9864C28.2102 27.3523 28.0466 26.7932 27.7125 26.3091C27.3784 25.825 26.8943 25.4466 26.2602 25.1739C25.633 24.9011 24.8761 24.7648 23.9898 24.7648H22.1386V21.8398H23.9898C24.7193 21.8398 25.3568 21.7136 25.9023 21.4614C26.4545 21.2091 26.8875 20.8545 27.2011 20.3977C27.5148 19.9341 27.6682 19.3989 27.6614 18.792C27.6682 18.1989 27.5352 17.6841 27.2625 17.2477C26.9966 16.8045 26.6182 16.4602 26.1273 16.2148C25.6432 15.9693 25.0739 15.8466 24.4193 15.8466C23.7784 15.8466 23.1852 15.9625 22.6398 16.1943C22.0943 16.4261 21.6545 16.7568 21.3205 17.1864C20.9864 17.6091 20.8091 18.1136 20.7886 18.7H17.1375C17.1648 17.5273 17.5023 16.4977 18.15 15.6114C18.8045 14.7182 19.6773 14.0227 20.7682 13.525C21.8591 13.0205 23.083 12.7682 24.4398 12.7682C25.8375 12.7682 27.0511 13.0307 28.0807 13.5557C29.117 14.0739 29.9182 14.7727 30.4841 15.6523C31.05 16.5318 31.333 17.5034 31.333 18.567C31.3398 19.7466 30.992 20.7352 30.2898 21.533C29.5943 22.3307 28.6807 22.8523 27.5489 23.0977V23.2614C29.0216 23.4659 30.15 24.0114 30.9341 24.8977C31.725 25.7773 32.117 26.8716 32.1102 28.1807C32.1102 29.3534 31.7761 30.4034 31.108 31.3307C30.4466 32.2511 29.533 32.9739 28.367 33.4989C27.208 34.0239 25.8784 34.2864 24.3784 34.2864Z" fill="white"/>
</svg>
