<svg width="48" height="49" viewBox="0 0 48 49" fill="none" xmlns="http://www.w3.org/2000/svg">
<circle cx="24" cy="24.3582" r="24" fill="#7548F2" fill-opacity="0.9"/>
<path d="M16.8614 34L16.8614 31.2591L24.133 24.1307C24.8284 23.4284 25.408 22.8045 25.8716 22.2591C26.3352 21.7136 26.683 21.1852 26.9148 20.6739C27.1466 20.1625 27.2625 19.617 27.2625 19.0375C27.2625 18.3761 27.1125 17.8102 26.8125 17.3398C26.5125 16.8625 26.1 16.4943 25.575 16.2352C25.05 15.9761 24.4534 15.8466 23.7852 15.8466C23.0966 15.8466 22.4932 15.9898 21.975 16.2761C21.4568 16.5557 21.0545 16.9545 20.7682 17.4727C20.4886 17.9909 20.3489 18.608 20.3489 19.3239H16.7386C16.7386 17.9943 17.042 16.8386 17.6489 15.8568C18.2557 14.875 19.0909 14.1148 20.1545 13.5761C21.225 13.0375 22.4523 12.7682 23.8364 12.7682C25.2409 12.7682 26.475 13.0307 27.5386 13.5557C28.6023 14.0807 29.4273 14.8 30.0136 15.7136C30.6068 16.6273 30.9034 17.6705 30.9034 18.8432C30.9034 19.6273 30.7534 20.3977 30.4534 21.1545C30.1534 21.9114 29.625 22.75 28.8682 23.6705C28.1182 24.5909 27.0648 25.7057 25.708 27.0148L22.0977 30.6864V30.8295H31.2205V34H16.8614Z" fill="white"/>
</svg>
