<svg width="48" height="49" viewBox="0 0 48 49" fill="none" xmlns="http://www.w3.org/2000/svg">
<circle cx="24" cy="24.7534" r="24" fill="#F24739"/>
<path d="M24.3784 34.6816C22.9057 34.6816 21.5966 34.4294 20.4511 33.9248C19.3125 33.4203 18.4125 32.718 17.7511 31.818C17.0898 30.918 16.7386 29.8782 16.6977 28.6987H20.5432C20.5773 29.2646 20.7648 29.7589 21.1057 30.1816C21.4466 30.5975 21.9 30.9214 22.4659 31.1532C23.0318 31.385 23.6659 31.5009 24.3682 31.5009C25.1182 31.5009 25.783 31.3714 26.3625 31.1123C26.942 30.8464 27.3955 30.4782 27.7227 30.0078C28.05 29.5373 28.2102 28.9953 28.2034 28.3816C28.2102 27.7475 28.0466 27.1884 27.7125 26.7044C27.3784 26.2203 26.8943 25.8419 26.2602 25.5691C25.633 25.2964 24.8761 25.16 23.9898 25.16H22.1386V22.235H23.9898C24.7193 22.235 25.3568 22.1089 25.9023 21.8566C26.4545 21.6044 26.8875 21.2498 27.2011 20.793C27.5148 20.3294 27.6682 19.7941 27.6614 19.1873C27.6682 18.5941 27.5352 18.0794 27.2625 17.643C26.9966 17.1998 26.6182 16.8555 26.1273 16.61C25.6432 16.3646 25.0739 16.2419 24.4193 16.2419C23.7784 16.2419 23.1852 16.3578 22.6398 16.5896C22.0943 16.8214 21.6545 17.1521 21.3205 17.5816C20.9864 18.0044 20.8091 18.5089 20.7886 19.0953H17.1375C17.1648 17.9225 17.5023 16.893 18.15 16.0066C18.8045 15.1134 19.6773 14.418 20.7682 13.9203C21.8591 13.4157 23.083 13.1634 24.4398 13.1634C25.8375 13.1634 27.0511 13.4259 28.0807 13.9509C29.117 14.4691 29.9182 15.168 30.4841 16.0475C31.05 16.9271 31.333 17.8987 31.333 18.9623C31.3398 20.1419 30.992 21.1305 30.2898 21.9282C29.5943 22.7259 28.6807 23.2475 27.5489 23.493V23.6566C29.0216 23.8612 30.15 24.4066 30.9341 25.293C31.725 26.1725 32.117 27.2669 32.1102 28.5759C32.1102 29.7487 31.7761 30.7987 31.108 31.7259C30.4466 32.6464 29.533 33.3691 28.367 33.8941C27.208 34.4191 25.8784 34.6816 24.3784 34.6816Z" fill="white"/>
</svg>
