<svg width="48" height="49" viewBox="0 0 48 49" fill="none" xmlns="http://www.w3.org/2000/svg">
<circle cx="24" cy="24.7534" r="24" fill="#F24739"/>
<path d="M16.8614 34.3951L16.8614 31.6542L24.133 24.5258C24.8284 23.8236 25.408 23.1997 25.8716 22.6542C26.3352 22.1088 26.683 21.5804 26.9148 21.069C27.1466 20.5576 27.2625 20.0122 27.2625 19.4326C27.2625 18.7713 27.1125 18.2054 26.8125 17.7349C26.5125 17.2576 26.1 16.8895 25.575 16.6304C25.05 16.3713 24.4534 16.2417 23.7852 16.2417C23.0966 16.2417 22.4932 16.3849 21.975 16.6713C21.4568 16.9508 21.0545 17.3497 20.7682 17.8679C20.4886 18.3861 20.3489 19.0031 20.3489 19.719H16.7386C16.7386 18.3895 17.042 17.2338 17.6489 16.252C18.2557 15.2701 19.0909 14.5099 20.1545 13.9713C21.225 13.4326 22.4523 13.1633 23.8364 13.1633C25.2409 13.1633 26.475 13.4258 27.5386 13.9508C28.6023 14.4758 29.4273 15.1951 30.0136 16.1088C30.6068 17.0224 30.9034 18.0656 30.9034 19.2383C30.9034 20.0224 30.7534 20.7929 30.4534 21.5497C30.1534 22.3065 29.625 23.1451 28.8682 24.0656C28.1182 24.9861 27.0648 26.1008 25.708 27.4099L22.0977 31.0815V31.2247H31.2205V34.3951H16.8614Z" fill="white"/>
</svg>
