<svg width="170" height="44" viewBox="0 0 170 44" fill="none" xmlns="http://www.w3.org/2000/svg">
<path d="M57.6863 9.31978C57.9362 14.0639 54.8608 18.1303 50.5933 19.3502C50.5356 19.3889 50.4971 19.4083 50.4589 19.4277C46.2874 20.5507 43.212 24.3847 43.212 28.9547C43.212 28.9934 43.1735 29.0514 43.1351 29.1095C42.5392 33.9699 38.4063 37.7263 33.4278 37.7263H33.2356C28.2569 37.7263 24.1242 33.9699 23.5284 29.1095C23.4705 29.0321 23.4514 28.9934 23.4514 28.9547C23.4514 24.404 20.3758 20.5507 16.2046 19.4277C16.1661 19.4083 16.1277 19.3889 16.07 19.3502C11.8026 18.1303 8.72708 14.0639 8.97697 9.31978C9.22686 4.40139 13.1482 0.373739 18.0307 0.025191C23.7589 -0.381447 28.5262 4.18839 28.5262 9.86196C28.5262 9.92005 28.5262 9.99751 28.5262 10.0556C28.7952 12.1663 29.7179 14.122 31.1403 15.6324C32.332 16.891 34.3121 16.891 35.5038 15.6324C36.9262 14.122 37.868 12.1663 38.1181 10.0556C38.1181 9.99751 38.1181 9.92005 38.1181 9.86196C38.1181 4.18839 42.8852 -0.381447 48.6134 0.025191C53.4766 0.373739 57.4173 4.40139 57.6863 9.31978Z" fill="#00B8C2"/>
<path d="M56.6291 43.9035C62.0328 43.9035 66.4133 39.4908 66.4133 34.0474C66.4133 28.6039 62.0328 24.1912 56.6291 24.1912C51.2256 24.1912 46.8449 28.6039 46.8449 34.0474C46.8449 39.4908 51.2256 43.9035 56.6291 43.9035Z" fill="#FDB515"/>
<path d="M9.78416 44C15.1878 44 19.5683 39.5873 19.5683 34.1439C19.5683 28.7004 15.1878 24.2877 9.78416 24.2877C4.38052 24.2877 0 28.7004 0 34.1439C0 39.5873 4.38052 44 9.78416 44Z" fill="#FDB515"/>
<path d="M76.1349 13.5455H80.0042L85.186 26.1932H85.3905L90.5724 13.5455H94.4417V31H91.4076V19.0085H91.2457L86.4218 30.9489H84.1547L79.3309 18.983H79.169V31H76.1349V13.5455ZM103.459 31.2557C102.18 31.2557 101.072 30.9744 100.135 30.4119C99.1974 29.8494 98.4701 29.0625 97.953 28.0511C97.4417 27.0398 97.186 25.858 97.186 24.5057C97.186 23.1534 97.4417 21.9687 97.953 20.9517C98.4701 19.9347 99.1974 19.1449 100.135 18.5824C101.072 18.0199 102.18 17.7386 103.459 17.7386C104.737 17.7386 105.845 18.0199 106.783 18.5824C107.72 19.1449 108.445 19.9347 108.956 20.9517C109.473 21.9687 109.731 23.1534 109.731 24.5057C109.731 25.858 109.473 27.0398 108.956 28.0511C108.445 29.0625 107.72 29.8494 106.783 30.4119C105.845 30.9744 104.737 31.2557 103.459 31.2557ZM103.476 28.7841C104.169 28.7841 104.748 28.5937 105.214 28.2131C105.68 27.8267 106.027 27.3097 106.254 26.6619C106.487 26.0142 106.604 25.2926 106.604 24.4972C106.604 23.696 106.487 22.9716 106.254 22.3239C106.027 21.6705 105.68 21.1506 105.214 20.7642C104.748 20.3778 104.169 20.1847 103.476 20.1847C102.766 20.1847 102.175 20.3778 101.703 20.7642C101.237 21.1506 100.888 21.6705 100.655 22.3239C100.427 22.9716 100.314 23.696 100.314 24.4972C100.314 25.2926 100.427 26.0142 100.655 26.6619C100.888 27.3097 101.237 27.8267 101.703 28.2131C102.175 28.5937 102.766 28.7841 103.476 28.7841ZM115.435 23.3295V31H112.35V17.9091H115.299V20.1335H115.452C115.753 19.4006 116.234 18.8182 116.893 18.3864C117.557 17.9545 118.378 17.7386 119.356 17.7386C120.259 17.7386 121.046 17.9318 121.717 18.3182C122.393 18.7045 122.915 19.2642 123.285 19.9972C123.66 20.7301 123.844 21.6193 123.839 22.6648V31H120.753V23.142C120.753 22.267 120.526 21.5824 120.072 21.0881C119.623 20.5937 119.001 20.3466 118.205 20.3466C117.665 20.3466 117.185 20.4659 116.765 20.7045C116.35 20.9375 116.023 21.2756 115.785 21.7188C115.552 22.1619 115.435 22.6989 115.435 23.3295ZM130.06 23.3295V31H126.975V17.9091H129.924V20.1335H130.077C130.378 19.4006 130.859 18.8182 131.518 18.3864C132.182 17.9545 133.003 17.7386 133.981 17.7386C134.884 17.7386 135.671 17.9318 136.342 18.3182C137.018 18.7045 137.54 19.2642 137.91 19.9972C138.285 20.7301 138.469 21.6193 138.464 22.6648V31H135.378V23.142C135.378 22.267 135.151 21.5824 134.697 21.0881C134.248 20.5937 133.626 20.3466 132.83 20.3466C132.29 20.3466 131.81 20.4659 131.39 20.7045C130.975 20.9375 130.648 21.2756 130.41 21.7188C130.177 22.1619 130.06 22.6989 130.06 23.3295ZM141.6 31V17.9091H144.685V31H141.6ZM143.151 16.0511C142.663 16.0511 142.242 15.8892 141.89 15.5653C141.538 15.2358 141.361 14.8409 141.361 14.3807C141.361 13.9148 141.538 13.5199 141.89 13.196C142.242 12.8665 142.663 12.7017 143.151 12.7017C143.646 12.7017 144.066 12.8665 144.413 13.196C144.765 13.5199 144.941 13.9148 144.941 14.3807C144.941 14.8409 144.765 15.2358 144.413 15.5653C144.066 15.8892 143.646 16.0511 143.151 16.0511ZM154.489 17.9091V20.2955H146.75V17.9091H154.489ZM148.685 31V16.6733C148.685 15.7926 148.866 15.0597 149.23 14.4744C149.599 13.8892 150.094 13.4517 150.713 13.1619C151.332 12.8722 152.02 12.7273 152.775 12.7273C153.31 12.7273 153.784 12.7699 154.199 12.8551C154.614 12.9403 154.92 13.017 155.119 13.0852L154.506 15.4716C154.375 15.4318 154.21 15.392 154.011 15.3523C153.812 15.3068 153.591 15.2841 153.347 15.2841C152.773 15.2841 152.366 15.4233 152.128 15.7017C151.895 15.9744 151.778 16.3665 151.778 16.8778V31H148.685ZM158.822 35.9091C158.402 35.9091 158.013 35.875 157.655 35.8068C157.302 35.7443 157.021 35.6705 156.811 35.5852L157.527 33.1818C157.976 33.3125 158.376 33.375 158.729 33.3693C159.081 33.3636 159.391 33.2528 159.658 33.0369C159.93 32.8267 160.16 32.4744 160.348 31.9801L160.612 31.2727L155.865 17.9091H159.138L162.155 27.7955H162.291L165.317 17.9091H168.598L163.356 32.5852C163.112 33.2784 162.788 33.8722 162.385 34.3665C161.981 34.8665 161.487 35.2472 160.902 35.5085C160.322 35.7756 159.629 35.9091 158.822 35.9091Z" fill="#101828"/>
</svg>
