<svg width="116" height="40" viewBox="0 0 116 40" fill="none" xmlns="http://www.w3.org/2000/svg">
<g clip-path="url(#clip0_340_8491)">
<path fill-rule="evenodd" clip-rule="evenodd" d="M40.4025 20.0145C40.4025 30.9317 31.5525 39.7817 20.6353 39.7817C9.71762 39.7817 0.86731 30.9317 0.86731 20.0145C0.86731 9.09734 9.71762 0.247276 20.6353 0.247276C31.5525 0.247276 40.4025 9.09734 40.4025 20.0145Z" fill="#ED342B"/>
<path fill-rule="evenodd" clip-rule="evenodd" d="M20.635 28.4818C16.2135 18.4594 12.9715 9.0965 12.9715 9.0965H6.1933C6.1933 9.0965 10.3188 21.1138 17.9821 36.1421H23.288C30.9513 21.1138 35.0765 9.0965 35.0765 9.0965H28.2983C28.2983 9.0965 25.0566 18.4594 20.635 28.4818Z" fill="#FEFEFE"/>
<path fill-rule="evenodd" clip-rule="evenodd" d="M105.766 18.9836C101.934 18.9836 101.64 23.1099 101.64 23.1099H109.891C109.891 23.1099 109.597 18.9836 105.766 18.9836ZM114.901 27.2354H101.64C101.64 27.2354 101.934 31.6567 107.829 31.6567C110.775 31.6567 113.723 30.7717 113.723 30.7717L114.312 35.487C114.312 35.487 111.365 36.6666 107.239 36.6666C101.345 36.6666 96.0399 33.7191 96.0399 25.4673C96.0399 18.9836 100.166 14.8576 106.06 14.8576C114.901 14.8576 115.49 23.6989 114.901 27.2354ZM69.806 20.2718L70.7186 15.4058C70.7186 15.4058 63.6722 13.2676 57.9449 17.23V36.6943H64.0273V20.8795C66.4602 19.0555 69.806 20.2718 69.806 20.2718ZM44.4528 18.9836C40.6218 18.9836 40.3272 23.1099 40.3272 23.1099H48.5788C48.5788 23.1099 48.2846 18.9836 44.4528 18.9836ZM53.5887 27.2354H40.3272C40.3272 27.2354 40.6218 31.6567 46.5159 31.6567C49.4624 31.6567 52.4098 30.7717 52.4098 30.7717L52.9996 35.487C52.9996 35.487 50.0522 36.6666 45.9261 36.6666C40.032 36.6666 34.7269 33.7191 34.7269 25.4673C34.7269 18.9836 38.8532 14.8576 44.7473 14.8576C53.5887 14.8576 54.1777 23.6989 53.5887 27.2354ZM84.6496 29.2552C81.5611 21.8422 80.0174 14.8611 80.0174 14.8611L73.8417 14.8619C73.8417 14.8619 76.93 26.784 82.1802 36.6629H87.119C92.3695 26.784 95.4578 14.8636 95.4578 14.8636H89.2817C89.2817 14.8636 87.7381 21.8422 84.6496 29.2552Z" fill="#03435F"/>
</g>
<defs>
<clipPath id="clip0_340_8491">
<rect width="114.783" height="40" fill="white" transform="translate(0.563171)"/>
</clipPath>
</defs>
</svg>
